FILE "South Park Rally (Europe) (En,Fr,De,Es) (Track 01).bin" BINARY
  TRACK 01 MODE2/2352
    INDEX 01 00:00:00
FILE "South Park Rally (Europe) (En,Fr,De,Es) (Track 02).bin" BINARY
  TRACK 02 AUDIO
    INDEX 00 00:00:00
    INDEX 01 00:02:00
FILE "South Park Rally (Europe) (En,Fr,De,Es) (Track 03).bin" BINARY
  TRACK 03 AUDIO
    INDEX 00 00:00:00
    INDEX 01 00:02:00
FILE "South Park Rally (Europe) (En,Fr,De,Es) (Track 04).bin" BINARY
  TRACK 04 AUDIO
    INDEX 00 00:00:00
    INDEX 01 00:02:00
FILE "South Park Rally (Europe) (En,Fr,De,Es) (Track 05).bin" BINARY
  TRACK 05 AUDIO
    INDEX 00 00:00:00
    INDEX 01 00:02:00
FILE "South Park Rally (Europe) (En,Fr,De,Es) (Track 06).bin" BINARY
  TRACK 06 AUDIO
    INDEX 00 00:00:00
    INDEX 01 00:02:00
FILE "South Park Rally (Europe) (En,Fr,De,Es) (Track 07).bin" BINARY
  TRACK 07 AUDIO
    INDEX 00 00:00:00
    INDEX 01 00:02:00
FILE "South Park Rally (Europe) (En,Fr,De,Es) (Track 08).bin" BINARY
  TRACK 08 AUDIO
    INDEX 00 00:00:00
    INDEX 01 00:02:00
FILE "South Park Rally (Europe) (En,Fr,De,Es) (Track 09).bin" BINARY
  TRACK 09 AUDIO
    INDEX 00 00:00:00
    INDEX 01 00:02:00
FILE "South Park Rally (Europe) (En,Fr,De,Es) (Track 10).bin" BINARY
  TRACK 10 AUDIO
    INDEX 00 00:00:00
    INDEX 01 00:02:00
FILE "South Park Rally (Europe) (En,Fr,De,Es) (Track 11).bin" BINARY
  TRACK 11 AUDIO
    INDEX 00 00:00:00
    INDEX 01 00:02:00
FILE "South Park Rally (Europe) (En,Fr,De,Es) (Track 12).bin" BINARY
  TRACK 12 AUDIO
    INDEX 00 00:00:00
    INDEX 01 00:02:00
FILE "South Park Rally (Europe) (En,Fr,De,Es) (Track 13).bin" BINARY
  TRACK 13 AUDIO
    INDEX 00 00:00:00
    INDEX 01 00:02:00
FILE "South Park Rally (Europe) (En,Fr,De,Es) (Track 14).bin" BINARY
  TRACK 14 AUDIO
    INDEX 00 00:00:00
    INDEX 01 00:02:00
FILE "South Park Rally (Europe) (En,Fr,De,Es) (Track 15).bin" BINARY
  TRACK 15 AUDIO
    INDEX 00 00:00:00
    INDEX 01 00:02:00
FILE "South Park Rally (Europe) (En,Fr,De,Es) (Track 16).bin" BINARY
  TRACK 16 AUDIO
    INDEX 00 00:00:00
    INDEX 01 00:02:00
FILE "South Park Rally (Europe) (En,Fr,De,Es) (Track 17).bin" BINARY
  TRACK 17 AUDIO
    INDEX 00 00:00:00
    INDEX 01 00:02:00
FILE "South Park Rally (Europe) (En,Fr,De,Es) (Track 18).bin" BINARY
  TRACK 18 AUDIO
    INDEX 00 00:00:00
    INDEX 01 00:02:00
FILE "South Park Rally (Europe) (En,Fr,De,Es) (Track 19).bin" BINARY
  TRACK 19 AUDIO
    INDEX 00 00:00:00
    INDEX 01 00:02:00
FILE "South Park Rally (Europe) (En,Fr,De,Es) (Track 20).bin" BINARY
  TRACK 20 AUDIO
    INDEX 00 00:00:00
    INDEX 01 00:02:00
FILE "South Park Rally (Europe) (En,Fr,De,Es) (Track 21).bin" BINARY
  TRACK 21 AUDIO
    INDEX 00 00:00:00
    INDEX 01 00:02:00
FILE "South Park Rally (Europe) (En,Fr,De,Es) (Track 22).bin" BINARY
  TRACK 22 AUDIO
    INDEX 00 00:00:00
    INDEX 01 00:02:00
FILE "South Park Rally (Europe) (En,Fr,De,Es) (Track 23).bin" BINARY
  TRACK 23 AUDIO
    INDEX 00 00:00:00
    INDEX 01 00:02:00
FILE "South Park Rally (Europe) (En,Fr,De,Es) (Track 24).bin" BINARY
  TRACK 24 AUDIO
    INDEX 00 00:00:00
    INDEX 01 00:02:00
FILE "South Park Rally (Europe) (En,Fr,De,Es) (Track 25).bin" BINARY
  TRACK 25 AUDIO
    INDEX 00 00:00:00
    INDEX 01 00:02:00
FILE "South Park Rally (Europe) (En,Fr,De,Es) (Track 26).bin" BINARY
  TRACK 26 AUDIO
    INDEX 00 00:00:00
    INDEX 01 00:02:00
FILE "South Park Rally (Europe) (En,Fr,De,Es) (Track 27).bin" BINARY
  TRACK 27 AUDIO
    INDEX 00 00:00:00
    INDEX 01 00:02:00
FILE "South Park Rally (Europe) (En,Fr,De,Es) (Track 28).bin" BINARY
  TRACK 28 AUDIO
    INDEX 00 00:00:00
    INDEX 01 00:02:00
FILE "South Park Rally (Europe) (En,Fr,De,Es) (Track 29).bin" BINARY
  TRACK 29 AUDIO
    INDEX 00 00:00:00
    INDEX 01 00:02:00
FILE "South Park Rally (Europe) (En,Fr,De,Es) (Track 30).bin" BINARY
  TRACK 30 AUDIO
    INDEX 00 00:00:00
    INDEX 01 00:02:00
FILE "South Park Rally (Europe) (En,Fr,De,Es) (Track 31).bin" BINARY
  TRACK 31 AUDIO
    INDEX 00 00:00:00
    INDEX 01 00:02:00
FILE "South Park Rally (Europe) (En,Fr,De,Es) (Track 32).bin" BINARY
  TRACK 32 AUDIO
    INDEX 00 00:00:00
    INDEX 01 00:02:00
FILE "South Park Rally (Europe) (En,Fr,De,Es) (Track 33).bin" BINARY
  TRACK 33 AUDIO
    INDEX 00 00:00:00
    INDEX 01 00:02:00
FILE "South Park Rally (Europe) (En,Fr,De,Es) (Track 34).bin" BINARY
  TRACK 34 AUDIO
    INDEX 00 00:00:00
    INDEX 01 00:02:00
FILE "South Park Rally (Europe) (En,Fr,De,Es) (Track 35).bin" BINARY
  TRACK 35 AUDIO
    INDEX 00 00:00:00
    INDEX 01 00:02:00
FILE "South Park Rally (Europe) (En,Fr,De,Es) (Track 36).bin" BINARY
  TRACK 36 AUDIO
    INDEX 00 00:00:00
    INDEX 01 00:02:00
FILE "South Park Rally (Europe) (En,Fr,De,Es) (Track 37).bin" BINARY
  TRACK 37 AUDIO
    INDEX 00 00:00:00
    INDEX 01 00:02:00
FILE "South Park Rally (Europe) (En,Fr,De,Es) (Track 38).bin" BINARY
  TRACK 38 AUDIO
    INDEX 00 00:00:00
    INDEX 01 00:02:00
FILE "South Park Rally (Europe) (En,Fr,De,Es) (Track 39).bin" BINARY
  TRACK 39 AUDIO
    INDEX 00 00:00:00
    INDEX 01 00:02:00
FILE "South Park Rally (Europe) (En,Fr,De,Es) (Track 40).bin" BINARY
  TRACK 40 AUDIO
    INDEX 00 00:00:00
    INDEX 01 00:02:00
FILE "South Park Rally (Europe) (En,Fr,De,Es) (Track 41).bin" BINARY
  TRACK 41 AUDIO
    INDEX 00 00:00:00
    INDEX 01 00:02:00
FILE "South Park Rally (Europe) (En,Fr,De,Es) (Track 42).bin" BINARY
  TRACK 42 AUDIO
    INDEX 00 00:00:00
    INDEX 01 00:02:00
FILE "South Park Rally (Europe) (En,Fr,De,Es) (Track 43).bin" BINARY
  TRACK 43 AUDIO
    INDEX 00 00:00:00
    INDEX 01 00:02:00
FILE "South Park Rally (Europe) (En,Fr,De,Es) (Track 44).bin" BINARY
  TRACK 44 AUDIO
    INDEX 00 00:00:00
    INDEX 01 00:02:00
FILE "South Park Rally (Europe) (En,Fr,De,Es) (Track 45).bin" BINARY
  TRACK 45 AUDIO
    INDEX 00 00:00:00
    INDEX 01 00:02:00
FILE "South Park Rally (Europe) (En,Fr,De,Es) (Track 46).bin" BINARY
  TRACK 46 AUDIO
    INDEX 00 00:00:00
    INDEX 01 00:02:00
FILE "South Park Rally (Europe) (En,Fr,De,Es) (Track 47).bin" BINARY
  TRACK 47 AUDIO
    INDEX 00 00:00:00
    INDEX 01 00:02:00
FILE "South Park Rally (Europe) (En,Fr,De,Es) (Track 48).bin" BINARY
  TRACK 48 AUDIO
    INDEX 00 00:00:00
    INDEX 01 00:02:00
FILE "South Park Rally (Europe) (En,Fr,De,Es) (Track 49).bin" BINARY
  TRACK 49 AUDIO
    INDEX 00 00:00:00
    INDEX 01 00:02:00
FILE "South Park Rally (Europe) (En,Fr,De,Es) (Track 50).bin" BINARY
  TRACK 50 AUDIO
    INDEX 00 00:00:00
    INDEX 01 00:02:00
FILE "South Park Rally (Europe) (En,Fr,De,Es) (Track 51).bin" BINARY
  TRACK 51 AUDIO
    INDEX 00 00:00:00
    INDEX 01 00:02:00
FILE "South Park Rally (Europe) (En,Fr,De,Es) (Track 52).bin" BINARY
  TRACK 52 AUDIO
    INDEX 00 00:00:00
    INDEX 01 00:02:00
FILE "South Park Rally (Europe) (En,Fr,De,Es) (Track 53).bin" BINARY
  TRACK 53 AUDIO
    INDEX 00 00:00:00
    INDEX 01 00:02:00
FILE "South Park Rally (Europe) (En,Fr,De,Es) (Track 54).bin" BINARY
  TRACK 54 AUDIO
    INDEX 00 00:00:00
    INDEX 01 00:02:00
FILE "South Park Rally (Europe) (En,Fr,De,Es) (Track 55).bin" BINARY
  TRACK 55 AUDIO
    INDEX 00 00:00:00
    INDEX 01 00:02:00
FILE "South Park Rally (Europe) (En,Fr,De,Es) (Track 56).bin" BINARY
  TRACK 56 AUDIO
    INDEX 00 00:00:00
    INDEX 01 00:02:00
FILE "South Park Rally (Europe) (En,Fr,De,Es) (Track 57).bin" BINARY
  TRACK 57 AUDIO
    INDEX 00 00:00:00
    INDEX 01 00:02:00
FILE "South Park Rally (Europe) (En,Fr,De,Es) (Track 58).bin" BINARY
  TRACK 58 AUDIO
    INDEX 00 00:00:00
    INDEX 01 00:02:00
FILE "South Park Rally (Europe) (En,Fr,De,Es) (Track 59).bin" BINARY
  TRACK 59 AUDIO
    INDEX 00 00:00:00
    INDEX 01 00:02:00
FILE "South Park Rally (Europe) (En,Fr,De,Es) (Track 60).bin" BINARY
  TRACK 60 AUDIO
    INDEX 00 00:00:00
    INDEX 01 00:02:00
FILE "South Park Rally (Europe) (En,Fr,De,Es) (Track 61).bin" BINARY
  TRACK 61 AUDIO
    INDEX 00 00:00:00
    INDEX 01 00:02:00
FILE "South Park Rally (Europe) (En,Fr,De,Es) (Track 62).bin" BINARY
  TRACK 62 AUDIO
    INDEX 00 00:00:00
    INDEX 01 00:02:00
FILE "South Park Rally (Europe) (En,Fr,De,Es) (Track 63).bin" BINARY
  TRACK 63 AUDIO
    INDEX 00 00:00:00
    INDEX 01 00:02:00
FILE "South Park Rally (Europe) (En,Fr,De,Es) (Track 64).bin" BINARY
  TRACK 64 AUDIO
    INDEX 00 00:00:00
    INDEX 01 00:02:00
FILE "South Park Rally (Europe) (En,Fr,De,Es) (Track 65).bin" BINARY
  TRACK 65 AUDIO
    INDEX 00 00:00:00
    INDEX 01 00:02:00
FILE "South Park Rally (Europe) (En,Fr,De,Es) (Track 66).bin" BINARY
  TRACK 66 AUDIO
    INDEX 00 00:00:00
    INDEX 01 00:02:00
FILE "South Park Rally (Europe) (En,Fr,De,Es) (Track 67).bin" BINARY
  TRACK 67 AUDIO
    INDEX 00 00:00:00
    INDEX 01 00:02:00
FILE "South Park Rally (Europe) (En,Fr,De,Es) (Track 68).bin" BINARY
  TRACK 68 AUDIO
    INDEX 00 00:00:00
    INDEX 01 00:02:00
FILE "South Park Rally (Europe) (En,Fr,De,Es) (Track 69).bin" BINARY
  TRACK 69 AUDIO
    INDEX 00 00:00:00
    INDEX 01 00:02:00
FILE "South Park Rally (Europe) (En,Fr,De,Es) (Track 70).bin" BINARY
  TRACK 70 AUDIO
    INDEX 00 00:00:00
    INDEX 01 00:02:00
FILE "South Park Rally (Europe) (En,Fr,De,Es) (Track 71).bin" BINARY
  TRACK 71 AUDIO
    INDEX 00 00:00:00
    INDEX 01 00:02:00
FILE "South Park Rally (Europe) (En,Fr,De,Es) (Track 72).bin" BINARY
  TRACK 72 AUDIO
    INDEX 00 00:00:00
    INDEX 01 00:02:00
FILE "South Park Rally (Europe) (En,Fr,De,Es) (Track 73).bin" BINARY
  TRACK 73 AUDIO
    INDEX 00 00:00:00
    INDEX 01 00:02:00
FILE "South Park Rally (Europe) (En,Fr,De,Es) (Track 74).bin" BINARY
  TRACK 74 AUDIO
    INDEX 00 00:00:00
    INDEX 01 00:02:00
FILE "South Park Rally (Europe) (En,Fr,De,Es) (Track 75).bin" BINARY
  TRACK 75 AUDIO
    INDEX 00 00:00:00
    INDEX 01 00:02:00
FILE "South Park Rally (Europe) (En,Fr,De,Es) (Track 76).bin" BINARY
  TRACK 76 AUDIO
    INDEX 00 00:00:00
    INDEX 01 00:02:00
